<?xml version="1.0" encoding="iso-8859-1"?>
<!-- Generator: Adobe Illustrator 16.0.0, SVG Export Plug-In . SVG Version: 6.00 Build 0)  -->
<!DOCTYPE svg PUBLIC "-//W3C//DTD SVG 1.1//EN" "http://www.w3.org/Graphics/SVG/1.1/DTD/svg11.dtd">
<svg version="1.1" id="Capa_1" xmlns="http://www.w3.org/2000/svg" xmlns:xlink="http://www.w3.org/1999/xlink" x="0px" y="0px"
	 width="45.129px" height="45.128px" viewBox="0 0 45.129 45.128" style="enable-background:new 0 0 45.129 45.128;"
	 xml:space="preserve">
<g>
	<g>
		<path d="M42.01,7.447H26.32l4.926-5.232c0.498-0.528,0.473-1.36-0.057-1.857s-1.359-0.473-1.857,0.056l-6.129,6.513l-7.307-6.588
			c-0.539-0.485-1.371-0.442-1.856,0.097c-0.485,0.539-0.442,1.37,0.097,1.855l5.721,5.158H3.122c-0.727,0-1.315,0.589-1.315,1.315
			v32.314c0,0.727,0.589,1.313,1.315,1.313H42.01c0.729,0,1.312-0.588,1.312-1.313V8.763C43.324,8.036,42.734,7.447,42.01,7.447z
			 M40.695,39.763H4.436V10.077h36.26V39.763z"/>
		<path d="M10.51,37.136h24.113c2.693,0,4.889-2.205,4.889-4.916V16.524c0-2.71-2.191-4.914-4.889-4.914H10.51
			c-2.696,0-4.888,2.204-4.888,4.914v15.695C5.622,34.93,7.814,37.136,10.51,37.136z M8.251,16.524c0-1.26,1.013-2.285,2.258-2.285
			h24.112c1.246,0,2.26,1.025,2.26,2.285v15.695c0,1.26-1.014,2.283-2.26,2.283H10.509c-1.244,0-2.258-1.021-2.258-2.283V16.524z"/>
		<path d="M39.818,42.501H5.312c-0.726,0-1.314,0.59-1.314,1.315s0.589,1.312,1.314,1.312h34.506c0.727,0,1.313-0.588,1.313-1.312
			C41.134,43.091,40.545,42.501,39.818,42.501z"/>
	</g>
</g>
<g>
</g>
<g>
</g>
<g>
</g>
<g>
</g>
<g>
</g>
<g>
</g>
<g>
</g>
<g>
</g>
<g>
</g>
<g>
</g>
<g>
</g>
<g>
</g>
<g>
</g>
<g>
</g>
<g>
</g>
</svg>
